<svg width="262" height="19" fill="none" xmlns="http://www.w3.org/2000/svg"><path d="M1.28 18a.64.64 0 0 1-.43-.17.64.64 0 0 1-.17-.43V1.8c0-.18.06-.32.17-.43a.64.64 0 0 1 .43-.17h2.54c.4 0 .68.15.82.46l5.86 9.21V1.8c0-.18.05-.32.16-.43a.64.64 0 0 1 .44-.17h2.88c.17 0 .32.06.43.17.11.11.17.25.17.43v15.58c0 .17-.06.32-.17.45a.58.58 0 0 1-.43.17H11.4a.86.86 0 0 1-.8-.46L4.77 8.66v8.74c0 .16-.06.3-.17.43a.58.58 0 0 1-.43.17H1.28Zm15.69 0a.54.54 0 0 1-.36-.14.54.54 0 0 1-.14-.36c0-.1 0-.17.02-.22l5.64-15.4c.05-.2.15-.36.31-.49s.37-.19.63-.19h3.55c.25 0 .46.06.62.2.16.12.27.28.31.47l5.62 15.41.05.22a.5.5 0 0 1-.17.36c-.1.1-.22.14-.36.14h-2.95c-.39 0-.64-.17-.77-.5l-.94-2.45h-6.4l-.92 2.45c-.12.33-.39.5-.79.5h-2.95Zm10.1-6.4-2.23-6.34-2.23 6.33h4.46Zm8.64 6.4a.64.64 0 0 1-.43-.17.64.64 0 0 1-.17-.43V1.8c0-.18.06-.32.17-.43a.64.64 0 0 1 .43-.17h2.6c.38 0 .66.18.83.53l4.23 7.56 4.22-7.56a.88.88 0 0 1 .84-.53H51c.17 0 .32.06.43.17.13.11.2.25.2.43v15.6c0 .18-.07.32-.2.43A.58.58 0 0 1 51 18h-2.86a.67.67 0 0 1-.45-.17.58.58 0 0 1-.17-.43v-9l-2.69 5.02c-.2.36-.49.55-.84.55h-1.25a.82.82 0 0 1-.5-.15c-.13-.1-.24-.23-.34-.4L39.2 8.4v9c0 .16-.06.3-.17.43a.58.58 0 0 1-.43.17h-2.88Zm18.31 0a.54.54 0 0 1-.36-.14.54.54 0 0 1-.14-.36c0-.1 0-.17.02-.22l5.64-15.4c.05-.2.16-.36.32-.49s.36-.19.62-.19h3.55c.26 0 .47.06.63.2.16.12.26.28.3.47l5.62 15.41.05.22a.5.5 0 0 1-.17.36c-.1.1-.21.14-.36.14H66.8c-.38 0-.64-.17-.77-.5l-.93-2.45h-6.4l-.92 2.45c-.13.33-.4.5-.8.5h-2.95Zm10.1-6.4L61.9 5.25l-2.24 6.33h4.47Zm8.64 6.4a.64.64 0 0 1-.43-.17.64.64 0 0 1-.17-.43V1.8c0-.18.06-.32.17-.43a.64.64 0 0 1 .43-.17h2.55c.4 0 .67.15.81.46l5.86 9.21V1.8c0-.18.06-.32.17-.43a.64.64 0 0 1 .43-.17h2.88c.18 0 .32.06.43.17.11.11.17.25.17.43v15.58c0 .17-.06.32-.17.45a.58.58 0 0 1-.43.17h-2.57a.86.86 0 0 1-.79-.46l-5.86-8.88v8.74c0 .16-.05.3-.16.43a.58.58 0 0 1-.44.17h-2.88Zm23.59.24c-2.3 0-4.1-.56-5.4-1.68-1.3-1.14-1.98-2.74-2.06-4.82a71.65 71.65 0 0 1 0-4.42c.08-2.03.77-3.6 2.08-4.7C92.3 1.52 94.1.96 96.35.96c1.52 0 2.84.25 3.96.74 1.14.5 2 1.13 2.6 1.9.6.77.92 1.56.95 2.38 0 .14-.05.26-.17.36-.1.1-.21.14-.36.14h-3.5a.86.86 0 0 1-.38-.07.56.56 0 0 1-.24-.27 2.96 2.96 0 0 0-2.86-1.73c-1.9 0-2.9 1.01-3 3.03a64.86 64.86 0 0 0 0 4.18c.1 2.1 1.12 3.16 3.07 3.16.95 0 1.7-.24 2.26-.72.57-.5.86-1.24.86-2.25v-.46H97.3a.58.58 0 0 1-.44-.17.67.67 0 0 1-.16-.45V8.95c0-.17.05-.32.16-.43.12-.13.26-.2.44-.2h6.04c.18 0 .32.07.44.2.1.11.16.26.16.43v2.74c0 1.36-.3 2.53-.93 3.53a6.07 6.07 0 0 1-2.67 2.25 9.62 9.62 0 0 1-3.98.77Zm9-.24a.54.54 0 0 1-.36-.14.54.54 0 0 1-.14-.36c0-.1 0-.17.02-.22l5.64-15.4c.05-.2.16-.36.31-.49.17-.13.37-.19.63-.19H115c.26 0 .47.06.63.2.16.12.26.28.3.47l5.62 15.41.05.22a.5.5 0 0 1-.17.36c-.1.1-.21.14-.36.14h-2.95c-.38 0-.64-.17-.77-.5l-.93-2.45H110l-.91 2.45c-.13.33-.4.5-.8.5h-2.95Zm10.1-6.4-2.23-6.34-2.23 6.33h4.47Zm8.64 6.4a.64.64 0 0 1-.43-.17.64.64 0 0 1-.17-.43V1.8c0-.18.06-.32.17-.43a.64.64 0 0 1 .43-.17h2.55c.4 0 .67.15.81.46l5.86 9.21V1.8c0-.18.06-.32.17-.43a.64.64 0 0 1 .43-.17h2.88c.18 0 .32.06.43.17.11.11.17.25.17.43v15.58c0 .17-.06.32-.17.45a.58.58 0 0 1-.43.17h-2.57a.86.86 0 0 1-.8-.46l-5.85-8.88v8.74c0 .16-.05.3-.16.43a.58.58 0 0 1-.44.17h-2.88Zm17.25 0a.64.64 0 0 1-.43-.17.64.64 0 0 1-.17-.43V1.8c0-.18.06-.32.17-.43a.64.64 0 0 1 .43-.17h3.17c.18 0 .32.06.43.17.12.11.17.25.17.43v12.58h7.27c.18 0 .32.06.44.19.1.11.16.25.16.43v2.4c0 .16-.05.3-.16.43a.58.58 0 0 1-.44.17h-11.04Zm14.32 0a.64.64 0 0 1-.43-.17.64.64 0 0 1-.17-.43V1.8c0-.18.06-.32.17-.43a.64.64 0 0 1 .43-.17h3.22c.18 0 .32.06.43.17.13.11.2.25.2.43v15.6c0 .18-.07.32-.2.43a.58.58 0 0 1-.43.17h-3.22Zm7.78 0a.64.64 0 0 1-.43-.17.64.64 0 0 1-.17-.43V1.8c0-.18.06-.32.17-.43a.64.64 0 0 1 .43-.17h3.03c.17 0 .32.06.43.17.11.11.17.25.17.43v5.33l4.44-5.47c.19-.3.5-.46.93-.46h3.46c.14 0 .26.06.36.17.1.1.14.2.14.33 0 .12-.02.21-.07.3l-5.76 7.24 6.2 7.97c.06.06.09.16.09.29 0 .12-.05.24-.14.36-.1.1-.22.14-.36.14h-3.58c-.38 0-.7-.16-.96-.48l-4.75-5.93v5.81c0 .18-.06.32-.17.43a.58.58 0 0 1-.43.17h-3.03Zm15.92 0a.64.64 0 0 1-.43-.17.64.64 0 0 1-.17-.43V1.8c0-.18.05-.32.17-.43a.64.64 0 0 1 .43-.17h3.17c.17 0 .32.06.43.17.11.11.17.25.17.43v12.58h7.27c.17 0 .32.06.43.19.11.11.17.25.17.43v2.4c0 .16-.06.3-.17.43a.58.58 0 0 1-.43.17h-11.04Zm12.76 0a.54.54 0 0 1-.36-.14.54.54 0 0 1-.15-.36c0-.1.01-.17.03-.22l5.64-15.4c.05-.2.15-.36.31-.49s.37-.19.62-.19h3.56c.25 0 .46.06.62.2.16.12.26.28.31.47l5.62 15.41.05.22a.5.5 0 0 1-.17.36c-.1.1-.22.14-.36.14h-2.95c-.39 0-.64-.17-.77-.5l-.94-2.45h-6.4l-.92 2.45c-.13.33-.39.5-.79.5h-2.95Zm10.1-6.4L200 5.25l-2.23 6.33h4.46Zm8.64 6.4a.64.64 0 0 1-.43-.17.64.64 0 0 1-.17-.43V1.8c0-.18.05-.32.17-.43a.64.64 0 0 1 .43-.17h6.53c2.1 0 3.72.48 4.9 1.44a4.86 4.86 0 0 1 1.77 4.03 5 5 0 0 1-.8 2.86 5.06 5.06 0 0 1-2.18 1.8l3.29 5.9c.05.1.07.19.07.27a.5.5 0 0 1-.17.36c-.1.1-.2.14-.33.14h-3.2a1 1 0 0 1-.98-.65l-2.73-5.28h-2.45v5.33c0 .18-.07.32-.2.43a.58.58 0 0 1-.43.17h-3.1Zm6.48-9.34c.73 0 1.3-.17 1.68-.52a2 2 0 0 0 .57-1.52 2 2 0 0 0-.57-1.5c-.37-.4-.93-.58-1.68-.58h-2.76v4.12h2.76ZM231.89 18a.67.67 0 0 1-.46-.17.58.58 0 0 1-.17-.43v-1.7c0-.48.2-.88.6-1.18l2.5-2.45c1.46-1.12 2.56-1.99 3.31-2.61a10.6 10.6 0 0 0 1.7-1.7c.4-.52.58-1 .58-1.47 0-1.27-.62-1.9-1.87-1.9-.66 0-1.16.2-1.51.6-.35.39-.58.87-.7 1.47-.1.36-.37.55-.81.55h-3a.49.49 0 0 1-.5-.5 5.55 5.55 0 0 1 3.11-4.85c1-.52 2.13-.77 3.41-.77 1.34 0 2.5.21 3.46.65a4.86 4.86 0 0 1 2.18 1.82 5 5 0 0 1 .75 2.74c0 1.12-.36 2.14-1.06 3.07-.69.91-1.75 1.9-3.17 2.97l-2.2 2.24h6.16c.18 0 .32.05.43.16.13.12.2.26.2.44v2.42c0 .18-.07.32-.2.43a.58.58 0 0 1-.43.17H231.9Zm23.22 0a.64.64 0 0 1-.43-.17.64.64 0 0 1-.17-.43v-2.71h-7.47a.58.58 0 0 1-.43-.17.58.58 0 0 1-.17-.43V11.8c0-.24.1-.49.27-.75l6.98-9.45c.23-.27.52-.41.9-.41h3.5c.17 0 .31.06.43.17.1.11.17.25.17.43v9.31h2.1c.2 0 .35.07.46.2.12.1.17.24.17.4v2.38c0 .17-.06.32-.17.43a.58.58 0 0 1-.43.17h-2.13v2.71c0 .16-.06.3-.17.43a.58.58 0 0 1-.44.17h-2.97Zm-.5-6.72V5.62l-4.04 5.66h4.03Z" fill="#fff"/></svg>